<svg width="50" height="50" viewBox="0 0 50 50" fill="none" xmlns="http://www.w3.org/2000/svg">
    <path d="M17.5 24.375C15.775 24.375 14.375 25.775 14.375 27.5C14.375 29.225 15.775 30.625 17.5 30.625C19.225 30.625 20.625 29.225 20.625 27.5C20.625 25.775 19.225 24.375 17.5 24.375ZM32.5 24.375C30.775 24.375 29.375 25.775 29.375 27.5C29.375 29.225 30.775 30.625 32.5 30.625C34.225 30.625 35.625 29.225 35.625 27.5C35.625 25.775 34.225 24.375 32.5 24.375ZM25 0C11.2 0 0 11.2 0 25C0 38.8 11.2 50 25 50C38.8 50 50 38.8 50 25C50 11.2 38.8 0 25 0ZM25 45C13.975 45 5 36.025 5 25C5 24.275 5.05 23.55 5.125 22.85C11.025 20.225 15.7 15.4 18.15 9.425C22.675 15.825 30.125 20 38.55 20C40.5 20 42.375 19.775 44.175 19.35C44.7 21.125 45 23.025 45 25C45 36.025 36.025 45 25 45Z" fill="#E8F5E9"/>
</svg>
